PathFileType	4	(X/Y/Z)	/home/abdul/Desktop/myosuite/custom_workspace/IK/output/S1_12_1.trc
DataRate	CameraRate	NumFrames	NumMarkers	Units	OrigDataRate	OrigDataStartFrame	OrigNumFrames
200.0	200.0	33	3	mm	200.0	878	3511
Frame#	Time	V_Shoulder			V_Elbow			V_Wrist		
		X1	Y1	Z1	X2	Y2	Z2	X3	Y3	Z3

878	4.385	-204.0426475230662	479.76644389801316	349.7849200605422	-306.98262543220346	343.47180010945385	17.63853855072246	-161.11228566204903	116.70975097192395	62.56765323773813
879	4.39	-204.0354633953383	479.7529250864268	349.77434987544854	-306.93936922436194	343.43373116663383	17.650534218380585	-160.99115649422123	116.68250208145135	62.45392222582005
880	4.395	-204.0291342941365	479.7387190076086	349.7660253302302	-306.89412864189467	343.39704501360507	17.662180133107736	-160.87128918490106	116.65552117118838	62.3439749178536
881	4.4	-204.0236583740094	479.7237479807268	349.7600252268194	-306.8468328615917	343.3617102929218	17.673473493998593	-160.7526615212562	116.62878831881515	62.23787493048753
882	4.405	-204.0190324012393	479.70793623019216	349.7564257024084	-306.7974154310713	343.32769241336484	17.684413525999368	-160.63525072113094	116.60228179199794	62.13568153751287
883	4.41	-204.01525177799758	479.6912101334874	349.75529997198805	-306.7458145329627	343.2949534877026	17.69500151287469	-160.51903350742919	116.57597802003467	62.037449573327095
884	4.415	-204.0123105677122	479.67349846856797	349.75671808254873	-306.69197324052493	343.2634522797357	17.70524083241283	-160.40398618706112	116.54985157276786	61.94322935676856
885	4.42	-204.01020152148894	479.6547326599928	349.7607466799298	-306.6358397636051	343.2331441617166	17.7151369935489	-160.29008473435016	116.52387514735474	61.85306663518306
886	4.425	-204.00891610542692	479.6348470229264	349.76744878923	-306.5773676838759	343.20398108321444	17.724697675050763	-160.17730487878273	116.49801956346371	61.76700254847059
887	4.43	-204.0084445286736	479.613779004138	349.77688360961724	-306.5165161783343	343.1759115524643	17.733932765378555	-160.06562219697224	116.47225376744177	61.685073612752056
888	4.435	-204.00877577206745	479.5914694191145	349.7891063242958	-306.4532502300905	343.1488806312072	17.742854403295965	-159.95501220869622	116.44654484596975	61.60731172319112
889	4.44	-204.00989761722295	479.5678626843946	349.8041679263035	-306.3875408255251	343.12282994397594	17.751477018779873	-159.84545047685276	116.42085804968966	61.533744175406795
890	4.445	-204.01179667591865	479.54290704422823	349.82211506072457	-306.31936513695376	343.0976977027348	17.759817373744777	-159.73691271117025	116.39515682725212	61.46439370481869
891	4.45	-204.01445841965742	479.51655479066886	349.84298988381175	-306.24870668999165	343.0734187477145	17.767894602069514	-159.6293748754906	116.36940287019168	61.39927854317837
892	4.455	-204.01786720927848	479.48876247620404	349.86682993941645	-306.1755555148784	343.04992460521703	17.775730248386417	-159.52281329843217	116.3435561689924	61.33841249145789
893	4.46	-204.02200632450976	479.4594911180445	349.8936680530299	-306.09990828108533	343.02714356308616	17.78334830506732	-159.41720478722266	116.31757508065766	61.28180500818986
894	4.465	-204.02685799336265	479.42870639319784	349.92353224364155	-306.02176841459766	343.0050007644553	17.790775246816693	-159.3125267444762	116.29141640804427	61.22946131228322
895	4.47	-204.03240342128277	479.3963788234725	349.95644565351876	-305.94114619732943	342.9834183202905	17.798040062259933	-159.20875728766987	116.26503549116377	61.18138249927493
896	4.475	-204.03862281998605	479.3624839495773	349.9924264959163	-305.8580588482008	342.9623154411487	17.80517428189473	-159.10587537105596	116.238386310592	61.13756566992012
897	4.48	-204.04549543592188	479.32700249350273	350.03148802062213	-305.77253058547547	342.94160858846345	17.812212001755377	-159.0038609097241	116.21142160306265	61.09800406997199
898	4.485	-204.0529995783232	479.28992050839923	350.0736384971496	-305.68459267002527	342.9212116455602	17.819189902124233	-158.90269490550543	116.1840929892513	61.06268723995795
899	4.49	-204.0611126468169	479.2512295152014	350.1188812152882	-305.594283429256	342.9010361084845	17.826147260611556	-158.80235957438404	116.15635111368364	61.03160117372016
900	4.495	-204.06981115858562	479.21092662527514	350.16721450263185	-305.5016482614956	342.88099129660566	17.833125958914632	-158.70283847505698	116.1281457966261	61.00472848445678
901	4.5	-204.07907077508932	479.1690146484118	350.21863175861057	-305.40673962070935	342.86098458283254	17.840170482559948	-158.60411663825238	116.09942619773861	60.98204857697497
902	4.505	-204.0888663283695	479.1255021855266	350.2731215044639	-305.309616981467	342.84092164314825	17.847327912928293	-158.5061806963884	116.07014099118896	60.96353782484766
903	4.51	-204.09917184697872	479.0804037054708	350.33066744851084	-305.2103467841456	342.820706725042	17.854647910862205	-158.40901901312193	116.04023855184572	60.94916975115379
904	4.515	-204.10996058159105	479.0337396054092	350.3912485659891	-305.10900236040754	342.8002429342804	17.86218269115871	-158.31262181230474	116.00966715208315	60.93891521147563
905	4.52	-204.12120503036832	478.98553625427115	350.4548391926649	-305.0056638390409	342.7794325393304	17.869986987257686	-158.21698130583007	115.97837516864827	60.93274257782767
906	4.525	-204.1328769641698	478.9358260188315	350.5214091313428	-304.90041803230065	342.75817729261263	17.8781180054481	-158.1220918198183	115.94631129895555	60.93061792219785
907	4.53	-204.14494745170973	478.884647272039	350.5909237703443	-304.793358302928	342.7363787676329	17.886635367930666	-158.0279499185557	115.9134247860928	60.932505198396186
908	4.535	-204.15738688477828	478.83204438326396	350.66334421296864	-304.68458441206735	342.71393871091453	17.89560104409661	-157.93455452556452	115.87966565173949	60.938366420924986
909	4.54	-204.17016500365693	478.77806769020225	350.7386274168971	-304.5742023483304	342.6907594075251	17.905079269408628	-157.84190704114866	115.84498493611991	60.9481618396114
910	4.545	-204.18325092286793	478.7227734522294	350.81672634246365	-304.4623241382945	342.6667440588762	17.915136451301507	-157.75001145572395	115.80933494403746	60.96185010877561
